<svg width="59" height="59" viewBox="0 0 59 59" fill="none" xmlns="http://www.w3.org/2000/svg">
<g filter="url(#filter0_d)">
<path d="M35.5961 32.411C35.0758 31.6346 34.3639 30.5715 34.3639 27.5455V26.1818C34.3639 23.3049 32.4434 20.8709 29.8184 20.0862V19.8182C29.8184 18.8154 29.0025 18 28.0002 18C26.9979 18 26.182 18.8154 26.182 19.8182V20.0862C23.5571 20.8709 21.6366 23.3049 21.6366 26.1818V27.5455C21.6366 30.5715 20.9246 31.6346 20.4043 32.411C20.1033 32.8606 19.8184 33.2854 19.8184 33.9091C19.8184 35.391 22.9076 35.911 25.4123 36.0901C25.7635 37.2144 26.7943 38 28.0002 38C29.206 38 30.2369 37.2144 30.5881 36.0901C33.0927 35.911 36.182 35.391 36.182 33.9091C36.1821 33.2854 35.897 32.8606 35.5961 32.411ZM28.9093 19.8908C28.6116 19.8479 28.3096 19.8182 28.0002 19.8182C27.6908 19.8182 27.3889 19.8479 27.0911 19.8908V19.8182C27.0911 19.3171 27.4987 18.9091 28.0002 18.9091C28.5018 18.9091 28.9093 19.317 28.9093 19.8182V19.8908Z" fill="#6F7291"/>
<rect x="4.5" y="3.5" width="47" height="47" rx="7.5" stroke="#2D325A"/>
<circle cx="49" cy="6" r="6" fill="#FE7448"/>
</g>
<defs>
<filter id="filter0_d" x="0" y="0" width="59" height="59" filterUnits="userSpaceOnUse" color-interpolation-filters="sRGB">
<feFlood flood-opacity="0" result="BackgroundImageFix"/>
<feColorMatrix in="SourceAlpha" type="matrix" values="0 0 0 0 0 0 0 0 0 0 0 0 0 0 0 0 0 0 127 0"/>
<feOffset dy="4"/>
<feGaussianBlur stdDeviation="2"/>
<feColorMatrix type="matrix" values="0 0 0 0 0 0 0 0 0 0 0 0 0 0 0 0 0 0 0.25 0"/>
<feBlend mode="normal" in2="BackgroundImageFix" result="effect1_dropShadow"/>
<feBlend mode="normal" in="SourceGraphic" in2="effect1_dropShadow" result="shape"/>
</filter>
</defs>
</svg>
