<svg width="32" height="32" viewBox="0 0 32 32" fill="none" xmlns="http://www.w3.org/2000/svg">
<circle opacity="0.2" cx="16" cy="16" r="16" fill="#FCBC23"/>
<path d="M6.69129 9.46438L13.5553 15.0487C13.5781 15.0674 13.6029 15.0837 13.6289 15.0967C13.7205 15.1435 13.8173 15.1671 13.9174 15.1671C14.0232 15.1671 14.129 15.1394 14.2836 15.0458L21.1424 9.46477C21.2441 9.38215 21.3007 9.25684 21.2958 9.12621C21.2909 8.99559 21.225 8.87473 21.1175 8.79988C20.8364 8.60375 20.5072 8.5 20.1666 8.5H7.66664C7.32605 8.5 6.9973 8.60336 6.71613 8.79949C6.60871 8.87395 6.54277 8.9948 6.53789 9.12582C6.53301 9.25645 6.58957 9.38176 6.69129 9.46438Z" fill="#FCBC23"/>
<path d="M16 18.9164C16 15.9297 18.43 13.4997 21.4167 13.4997C21.647 13.4997 21.8334 13.3133 21.8334 13.083V10.8528C21.8334 10.6921 21.741 10.5456 21.5957 10.4765C21.4505 10.4089 21.2787 10.4288 21.1538 10.5298L14.761 15.732L14.6877 15.7804C14.2072 16.0754 13.6168 16.0905 13.0744 15.7324L6.67953 10.5293C6.55543 10.428 6.38371 10.4076 6.23762 10.476C6.09238 10.5452 6 10.6917 6 10.8524V18.4997C6 19.4189 6.74746 20.1664 7.66668 20.1664H15.6497C15.7705 20.1664 15.8853 20.1139 15.9646 20.0228C16.0436 19.9316 16.0794 19.8103 16.0623 19.6907C16.0199 19.3945 16 19.1483 16 18.9164Z" fill="#FCBC23"/>
<path d="M21.4168 14.3335C18.8895 14.3335 16.8335 16.3896 16.8335 18.9168C16.8335 21.4441 18.8895 23.5002 21.4168 23.5002C23.9441 23.5002 26.0001 21.4441 26.0001 18.9169C26.0001 16.3896 23.9441 14.3335 21.4168 14.3335ZM23.3781 18.3781C23.2967 18.4595 23.1901 18.5002 23.0835 18.5002C22.9769 18.5002 22.8703 18.4595 22.7888 18.3781L21.8335 17.4227V21.4169C21.8335 21.6472 21.6471 21.8335 21.4168 21.8335C21.1865 21.8335 21.0001 21.6472 21.0001 21.4169V17.4227L20.0447 18.3781C19.882 18.5409 19.6183 18.5409 19.4556 18.3781C19.2928 18.2153 19.2928 17.9517 19.4556 17.7889L21.1217 16.1228C21.1603 16.0841 21.2065 16.0534 21.2578 16.0322C21.3596 15.9901 21.4741 15.9901 21.576 16.0322C21.6272 16.0534 21.6734 16.0841 21.712 16.1228L23.3781 17.7889C23.5408 17.9517 23.5408 18.2153 23.3781 18.3781Z" fill="#FCBC23"/>
</svg>
